# Acoustic Mesh Export
v -1.8500 0.0000 0.0000
v 1.8500 0.0000 0.0000
v 1.8500 6.4000 0.0000
v -1.8500 6.4000 0.0000
v -1.8500 0.0000 2.8000
v 1.8500 0.0000 2.8000
v 1.8500 6.4000 2.8000
v -1.8500 6.4000 2.8000
v -0.4900 2.0000 0.0000
v -0.4900 2.0000 2.2000
v -0.5248 2.1300 0.0000
v -0.5248 2.1300 2.2000
v -0.6200 2.2252 0.0000
v -0.6200 2.2252 2.2000
v -0.7500 2.2600 0.0000
v -0.7500 2.2600 2.2000
v -0.8800 2.2252 0.0000
v -0.8800 2.2252 2.2000
v -0.9752 2.1300 0.0000
v -0.9752 2.1300 2.2000
v -1.0100 2.0000 0.0000
v -1.0100 2.0000 2.2000
v -0.9752 1.8700 0.0000
v -0.9752 1.8700 2.2000
v -0.8800 1.7748 0.0000
v -0.8800 1.7748 2.2000
v -0.7500 1.7400 0.0000
v -0.7500 1.7400 2.2000
v -0.6200 1.7748 0.0000
v -0.6200 1.7748 2.2000
v -0.5248 1.8700 0.0000
v -0.5248 1.8700 2.2000
v -0.7500 2.0000 2.2000
v 0.9600 2.8000 0.0000
v 0.9600 2.8000 2.2000
v 0.9252 2.9300 0.0000
v 0.9252 2.9300 2.2000
v 0.8300 3.0252 0.0000
v 0.8300 3.0252 2.2000
v 0.7000 3.0600 0.0000
v 0.7000 3.0600 2.2000
v 0.5700 3.0252 0.0000
v 0.5700 3.0252 2.2000
v 0.4748 2.9300 0.0000
v 0.4748 2.9300 2.2000
v 0.4400 2.8000 0.0000
v 0.4400 2.8000 2.2000
v 0.4748 2.6700 0.0000
v 0.4748 2.6700 2.2000
v 0.5700 2.5748 0.0000
v 0.5700 2.5748 2.2000
v 0.7000 2.5400 0.0000
v 0.7000 2.5400 2.2000
v 0.8300 2.5748 0.0000
v 0.8300 2.5748 2.2000
v 0.9252 2.6700 0.0000
v 0.9252 2.6700 2.2000
v 0.7000 2.8000 2.2000
v -0.3400 4.2000 0.0000
v -0.3400 4.2000 2.2000
v -0.3748 4.3300 0.0000
v -0.3748 4.3300 2.2000
v -0.4700 4.4252 0.0000
v -0.4700 4.4252 2.2000
v -0.6000 4.4600 0.0000
v -0.6000 4.4600 2.2000
v -0.7300 4.4252 0.0000
v -0.7300 4.4252 2.2000
v -0.8252 4.3300 0.0000
v -0.8252 4.3300 2.2000
v -0.8600 4.2000 0.0000
v -0.8600 4.2000 2.2000
v -0.8252 4.0700 0.0000
v -0.8252 4.0700 2.2000
v -0.7300 3.9748 0.0000
v -0.7300 3.9748 2.2000
v -0.6000 3.9400 0.0000
v -0.6000 3.9400 2.2000
v -0.4700 3.9748 0.0000
v -0.4700 3.9748 2.2000
v -0.3748 4.0700 0.0000
v -0.3748 4.0700 2.2000
v -0.6000 4.2000 2.2000
v 0.9100 4.8000 0.0000
v 0.9100 4.8000 2.2000
v 0.8752 4.9300 0.0000
v 0.8752 4.9300 2.2000
v 0.7800 5.0252 0.0000
v 0.7800 5.0252 2.2000
v 0.6500 5.0600 0.0000
v 0.6500 5.0600 2.2000
v 0.5200 5.0252 0.0000
v 0.5200 5.0252 2.2000
v 0.4248 4.9300 0.0000
v 0.4248 4.9300 2.2000
v 0.3900 4.8000 0.0000
v 0.3900 4.8000 2.2000
v 0.4248 4.6700 0.0000
v 0.4248 4.6700 2.2000
v 0.5200 4.5748 0.0000
v 0.5200 4.5748 2.2000
v 0.6500 4.5400 0.0000
v 0.6500 4.5400 2.2000
v 0.7800 4.5748 0.0000
v 0.7800 4.5748 2.2000
v 0.8752 4.6700 0.0000
v 0.8752 4.6700 2.2000
v 0.6500 4.8000 2.2000
f 1 2 3
f 1 3 4
f 5 8 7
f 5 7 6
f 1 5 6
f 1 6 2
f 2 6 7
f 2 7 3
f 3 7 8
f 3 8 4
f 4 8 5
f 4 5 1
f 9 10 12
f 9 12 11
f 11 12 14
f 11 14 13
f 13 14 16
f 13 16 15
f 15 16 18
f 15 18 17
f 17 18 20
f 17 20 19
f 19 20 22
f 19 22 21
f 21 22 24
f 21 24 23
f 23 24 26
f 23 26 25
f 25 26 28
f 25 28 27
f 27 28 30
f 27 30 29
f 29 30 32
f 29 32 31
f 31 32 10
f 31 10 9
f 10 33 12
f 12 33 14
f 14 33 16
f 16 33 18
f 18 33 20
f 20 33 22
f 22 33 24
f 24 33 26
f 26 33 28
f 28 33 30
f 30 33 32
f 32 33 10
f 34 35 37
f 34 37 36
f 36 37 39
f 36 39 38
f 38 39 41
f 38 41 40
f 40 41 43
f 40 43 42
f 42 43 45
f 42 45 44
f 44 45 47
f 44 47 46
f 46 47 49
f 46 49 48
f 48 49 51
f 48 51 50
f 50 51 53
f 50 53 52
f 52 53 55
f 52 55 54
f 54 55 57
f 54 57 56
f 56 57 35
f 56 35 34
f 35 58 37
f 37 58 39
f 39 58 41
f 41 58 43
f 43 58 45
f 45 58 47
f 47 58 49
f 49 58 51
f 51 58 53
f 53 58 55
f 55 58 57
f 57 58 35
f 59 60 62
f 59 62 61
f 61 62 64
f 61 64 63
f 63 64 66
f 63 66 65
f 65 66 68
f 65 68 67
f 67 68 70
f 67 70 69
f 69 70 72
f 69 72 71
f 71 72 74
f 71 74 73
f 73 74 76
f 73 76 75
f 75 76 78
f 75 78 77
f 77 78 80
f 77 80 79
f 79 80 82
f 79 82 81
f 81 82 60
f 81 60 59
f 60 83 62
f 62 83 64
f 64 83 66
f 66 83 68
f 68 83 70
f 70 83 72
f 72 83 74
f 74 83 76
f 76 83 78
f 78 83 80
f 80 83 82
f 82 83 60
f 84 85 87
f 84 87 86
f 86 87 89
f 86 89 88
f 88 89 91
f 88 91 90
f 90 91 93
f 90 93 92
f 92 93 95
f 92 95 94
f 94 95 97
f 94 97 96
f 96 97 99
f 96 99 98
f 98 99 101
f 98 101 100
f 100 101 103
f 100 103 102
f 102 103 105
f 102 105 104
f 104 105 107
f 104 107 106
f 106 107 85
f 106 85 84
f 85 108 87
f 87 108 89
f 89 108 91
f 91 108 93
f 93 108 95
f 95 108 97
f 97 108 99
f 99 108 101
f 101 108 103
f 103 108 105
f 105 108 107
f 107 108 85
